#N canvas 489 81 1611 880 10;
#X obj 927 228 loadbang;
#X obj 927 250 delay 300;
#X obj 927 272 s initbang;
#X obj 1117 238 r initbang;
#X msg 1117 260 \; pd dsp 1;
#X text 949 203 Initialization -- Turn DSP on;
#X text 149 167 Audio Bypass -- Input to Output;
#X msg 679 266 0;
#X obj 567 565 samphold~;
#X obj 583 709 vd~ \$0-bigbuffer;
#X obj 619 502 phasor~ 10;
#X floatatom 723 332 5 0 0 0 - - -;
#X obj 732 386 /;
#X floatatom 717 413 5 0 0 0 - - -;
#X msg 734 358 1000 \$1;
#X obj 558 660 *~;
#X obj 520 246 tgl 13 0 empty empty stutter-ON/OFF 31 4 0 10 -262144
-1 -1 1 1;
#X text 706 265 reset;
#X text 367 335 one cycle per 60 seconds;
#X text 630 527 retrigger the playback position;
#X text 631 538 at a rate determined by "stutter-ms";
#X text 336 649 when the signal is zero \,;
#X text 340 663 the delay is also zero;
#X text 349 674 ie. normal playback;
#X text 380 383 6 seconds = 6000ms;
#X obj 583 334 bng 15 250 50 1 \$0-stutter-bang-s \$0-stutter-bang-r
interrupt 35 4 0 10 -262144 -1 -1;
#X floatatom 452 499 5 0 9 0 - - -;
#X obj 566 443 phasor~ 0.166667;
#X floatatom 669 372 5 0 0 0 - - -;
#X msg 716 476 0;
#X floatatom 698 499 5 0 0 0 - - -;
#X obj 539 481 +~;
#X msg 652 347 1;
#X obj 748 445 del;
#X obj 805 473 *;
#X text 213 139 CURRENTLY ONLY LOOKS AT L INPUT;
#X obj 769 305 *;
#X msg 728 241 1000 \$1;
#X msg 824 433 1000 \$1;
#X obj 276 252 delwrite~ \$0-bigbuffer 2000;
#X obj 565 488 *~ 2000;
#X msg 922 361 0.2;
#X msg 842 260 0.25;
#X obj 364 163 t b f;
#X obj 465 127 inlet stutter_toggle;
#X obj 609 126 inlet stutter_size;
#X obj 744 126 inlet interrupt_bang;
#X obj 887 127 inlet interrupt_size;
#X obj 355 88 inlet~ audioin;
#X obj 596 823 outlet~ audioout L;
#X obj 778 807 outlet~ audioout R;
#X obj 296 622 spigot;
#X obj 490 721 *~;
#X obj 586 775 *~;
#X obj 491 775 +~;
#X obj 519 691 -~;
#X floatatom 499 655 5 0 0 0 - - -;
#X obj 318 226 *~;
#X obj 439 191 tgl 15 0 empty empty quarantine_buffer 17 7 0 10 -262144
-1 -1 0 1;
#X obj 401 219 -~ 1;
#X text 519 206 w.i.p.;
#X connect 0 0 1 0;
#X connect 1 0 2 0;
#X connect 3 0 4 0;
#X connect 3 0 42 0;
#X connect 3 0 41 0;
#X connect 7 0 27 1;
#X connect 8 0 15 1;
#X connect 9 0 53 1;
#X connect 10 0 8 1;
#X connect 11 0 14 0;
#X connect 12 0 13 0;
#X connect 13 0 10 0;
#X connect 14 0 12 0;
#X connect 15 0 9 0;
#X connect 16 0 31 0;
#X connect 16 0 26 0;
#X connect 25 0 32 0;
#X connect 25 0 33 0;
#X connect 27 0 40 0;
#X connect 28 0 30 0;
#X connect 29 0 28 0;
#X connect 30 0 31 1;
#X connect 31 0 15 0;
#X connect 31 0 55 1;
#X connect 31 0 53 0;
#X connect 32 0 28 0;
#X connect 33 0 29 0;
#X connect 34 0 33 1;
#X connect 36 0 11 0;
#X connect 37 0 36 0;
#X connect 38 0 34 0;
#X connect 40 0 8 0;
#X connect 41 0 38 0;
#X connect 42 0 37 0;
#X connect 44 0 16 0;
#X connect 45 0 37 0;
#X connect 46 0 25 0;
#X connect 47 0 38 0;
#X connect 48 0 52 0;
#X connect 48 0 57 1;
#X connect 52 0 54 0;
#X connect 53 0 54 1;
#X connect 54 0 49 0;
#X connect 55 0 52 1;
#X connect 56 0 55 0;
#X connect 57 0 39 0;
#X connect 58 0 59 0;
#X connect 59 0 57 0;
