#N canvas 469 20 751 581 10;
#X obj 927 228 loadbang;
#X obj 927 250 delay 300;
#X obj 927 272 s initbang;
#X obj 1117 238 r initbang;
#X msg 1117 260 \; pd dsp 1;
#X text 949 203 Initialization -- Turn DSP on;
#X text 149 167 Audio Bypass -- Input to Output;
#X msg 679 266 0;
#X obj 567 565 samphold~;
#X obj 583 709 vd~ \$0-bigbuffer;
#X obj 619 502 phasor~ 10;
#X floatatom 723 332 5 0 0 0 - - -, f 5;
#X obj 732 386 /;
#X floatatom 717 413 5 0 0 0 - - -, f 5;
#X msg 734 358 1000 \$1;
#X obj 558 660 *~;
#X obj 520 246 tgl 13 0 empty empty stutter-ON/OFF 31 4 0 10 -262144
-1 -1 1 1;
#X text 706 265 reset;
#X text 630 527 retrigger the playback position;
#X text 631 538 at a rate determined by "stutter-ms";
#X text 336 649 when the signal is zero \,;
#X text 340 663 the delay is also zero;
#X text 349 674 ie. normal playback;
#X obj 583 334 bng 15 250 50 1 \$0-stutter-bang-s \$0-stutter-bang-r
interrupt 35 4 0 10 -262144 -1 -1;
#X floatatom 452 499 5 0 9 0 - - -, f 5;
#X obj 566 443 phasor~ 0.166667;
#X floatatom 669 372 5 0 0 0 - - -, f 5;
#X msg 716 476 0;
#X floatatom 698 499 5 0 0 0 - - -, f 5;
#X obj 539 481 +~;
#X msg 652 347 1;
#X obj 748 445 del;
#X obj 805 473 *;
#X text 213 139 CURRENTLY ONLY LOOKS AT L INPUT;
#X obj 769 305 *;
#X msg 728 241 1000 \$1;
#X msg 824 433 1000 \$1;
#X obj 1152 501 delwrite~ \$0-bigbuffer 2000;
#X obj 565 488 *~ 2000;
#X msg 922 361 0.2;
#X msg 842 260 0.25;
#X obj 364 163 t b f;
#X obj 465 127 inlet stutter_toggle;
#X obj 609 126 inlet stutter_size;
#X obj 744 126 inlet interrupt_bang;
#X obj 887 127 inlet interrupt_size;
#X obj 355 88 inlet~ audioin;
#X obj 550 855 outlet~ audioout L;
#X obj 692 851 outlet~ audioout R;
#X obj 490 721 *~;
#X obj 586 775 *~;
#X obj 491 775 +~;
#X obj 519 691 -~;
#X obj 1194 475 *~;
#X obj 892 306 tgl 15 0 empty empty quarantine_buffer 32 5 0 10 -262144
-1 -1 0 1;
#X obj 1277 468 -~ 1;
#X text 519 206 w.i.p.;
#X obj 503 611 1;
#X obj 1109 553 tabwrite~ \$0-glitchbuffer1;
#N canvas 0 22 450 300 (subpatch) 0;
#X array \$0-glitchbuffer1 88200 float 4 black black;
#X coords 0 1 88199 -1 200 140 1;
#X restore 901 451 graph;
#X obj 1113 491 bng 15 250 50 0 empty empty empty 17 7 0 10 -262144
-1 -1;
#X obj 903 652 line~;
#X obj 663 598 bng 15 250 50 0 empty empty empty 17 7 0 10 -262144
-1 -1;
#X msg 746 566 stop;
#X obj 1171 375 bng 15 250 50 0 empty empty empty 17 7 0 10 -262144
-1 -1;
#X msg 1187 407 stop;
#X obj 682 281 bng 15 250 50 0 empty empty empty 17 7 0 10 -262144
-1 -1;
#X obj 1122 455 metro 3000;
#X obj 1051 784 -~;
#X text 1070 660 BITCRUSHER;
#X obj 1130 712 sig~;
#X floatatom 1098 683 5 0 0 0 - - -, f 5;
#X obj 1066 746 wrap~;
#X obj 1065 716 *~ 8;
#X obj 1050 813 /~ 8;
#X text 1201 752 BITCRUSH2;
#X obj 1156 859 tabwrite~ \$0-glitchbuffer1;
#X obj 1002 844 bng 15 250 50 0 empty empty empty 17 7 0 10 -262144
-1 -1;
#X msg 1044 839 stop;
#X obj 1156 821 bng 15 250 10 0 empty empty empty 17 7 0 10 -262144
-1 -1;
#X obj 936 697 snapshot~;
#X floatatom 1125 741 10 0 0 0 - - -, f 10;
#X obj 1095 811 print;
#X msg 1091 774 start \$1;
#X obj 927 740 print;
#X obj 1024 628 tabread4~ \$0-glitchbuffer1;
#X obj 1045 865 metro 1000;
#N canvas 300 33 636 556 dropsamples 0;
#X obj 14 36 inlet~ audioin;
#X obj 125 305 outlet~ out1;
#X obj 111 126 line~;
#X obj 214 130 2;
#X obj 155 200 ==~ 0;
#X obj 352 243 avg~;
#X obj 133 226 *~;
#X obj 356 172 0.0226757;
#X obj 367 72 1;
#X obj 294 23 44100;
#X obj 391 40 nbx 5 14 -1e+037 1e+037 0 0 empty empty empty 0 -8 0
10 -262144 -1 -1 0 256 0;
#X obj 401 98 /;
#X obj 182 100 metro;
#X obj 212 29 loadbang;
#X obj 46 165 nbx 5 14 -1e+037 1e+037 0 0 empty empty empty 0 -8 0
10 -262144 -1 -1 0 256 0;
#X floatatom 45 291 5 0 0 0 - - -, f 5;
#X obj 32 209 snapshot~;
#X obj 37 245 print;
#X obj 61 98 print;
#X obj 269 244 * 1000;
#X obj 166 356 bng 15 250 50 0 empty empty empty 17 7 0 10 -262144
-1 -1;
#X msg 166 379 stop;
#X msg 147 17 0;
#X obj 249 63 bng 15 250 50 0 empty empty empty 17 7 0 10 -262144 -1
-1;
#X obj 265 117 metro;
#X obj 460 229 1;
#X obj 70 343 metro 100;
#X msg 117 75 1000 0.1;
#X msg 357 206 0.0226757;
#X obj 151 160 expr~ $v1 % 4;
#X connect 0 0 6 0;
#X connect 2 0 16 0;
#X connect 2 0 29 0;
#X connect 4 0 6 1;
#X connect 6 0 1 0;
#X connect 8 0 11 0;
#X connect 10 0 11 1;
#X connect 12 0 22 0;
#X connect 13 0 12 0;
#X connect 13 0 26 0;
#X connect 19 0 12 1;
#X connect 20 0 26 0;
#X connect 21 0 26 0;
#X connect 22 0 2 0;
#X connect 23 0 12 0;
#X connect 23 0 24 0;
#X connect 24 0 27 0;
#X connect 26 0 16 0;
#X connect 27 0 2 0;
#X connect 28 0 19 0;
#X connect 28 0 2 1;
#X connect 28 0 24 0;
#X connect 29 0 4 0;
#X restore 718 807 pd dropsamples;
#X text 758 733 play with line~ samples/length to speed up/down;
#X text 265 523 block size 4096 \, no overlap \, no resampling;
#X text 266 545 bigger block size;
#X text 264 566 double overlap;
#X text 273 590 downsampled by factor of 2;
#X text 264 613 upsampled by factor of 2;
#X msg 182 524 set 4096 1 1;
#X msg 182 546 set 8192 1 1;
#X msg 182 568 set 4096 2 1;
#X msg 182 590 set 4096 1 0.5;
#X msg 182 612 set 4096 1 2;
#X text 239 497 examples from block~ help;
#X obj 176 677 block~;
#X obj 722 596 metro \$1;
#X floatatom 812 323 5 0 0 0 - - -, f 5;
#X obj 776 339 print;
#N canvas 46 50 450 349 ap_resamp_ug1 0;
#X obj 262 126 samphold~;
#X obj 113 25 inlet~ resamp_in1;
#X obj 132 171 outlet~ resamp_in2;
#X text 297 34 very crude resampler;
#X obj 234 25 inlet rate;
#X obj 260 87 phasor~ 32000;
#X floatatom 302 60 6 0 0 0 - - -, f 6;
#X msg 352 81 300;
#X msg 382 57 32000;
#X msg 362 136 50;
#X connect 0 0 2 0;
#X connect 1 0 0 0;
#X connect 4 0 5 0;
#X connect 4 0 6 0;
#X connect 5 0 0 1;
#X connect 7 0 5 0;
#X connect 8 0 5 0;
#X connect 9 0 5 0;
#X restore 1202 720 pd ap_resamp_ug1;
#X obj 1202 656 hsl 128 15 32 96000 0 1 empty empty resample\ rate
-2 -8 0 10 -262144 -1 -1 2031 1;
#X floatatom 1261 677 7 0 0 0 - - -, f 7;
#N canvas 16 68 450 326 ap_bitcrush2 0;
#X obj 84 47 inlet~ audin;
#X obj 184 47 inlet bitdepth;
#X obj 120 249 outlet~ audout;
#X text 144 12 BITCRUSH2;
#X obj 147 83 +~ 1;
#X obj 147 158 expr~ int($v1);
#X obj 147 208 -~ 1;
#X obj 148 131 clip~ 0 255;
#X obj 147 183 /~ 127.5;
#X obj 147 109 *~ 127.5;
#X floatatom 319 128 5 0 0 0 - - -, f 5;
#X obj 269 198 - 1;
#X text 305 196 max - zero indexed;
#X obj 267 240 / 2;
#X text 313 234 half;
#X text 235 12 TODO: finish bitdepth control;
#X obj 294 286 print;
#X floatatom 255 309 5 0 0 0 - - -, f 5;
#X floatatom 385 220 10 0 0 0 - - -, f 10;
#X floatatom 258 127 5 0 0 0 - - -, f 5;
#X obj 286 161 pow;
#X obj 321 98 bng 15 250 50 0 empty empty empty 17 7 0 10 -262144 -1
-1;
#X obj 335 166 change;
#X msg 367 133 set \$1;
#X obj 360 102 metro 250;
#X obj 360 79 initbang;
#X connect 0 0 4 0;
#X connect 1 0 10 0;
#X connect 4 0 9 0;
#X connect 5 0 8 0;
#X connect 6 0 2 0;
#X connect 7 0 5 0;
#X connect 8 0 6 0;
#X connect 9 0 7 0;
#X connect 10 0 20 1;
#X connect 11 0 13 0;
#X connect 11 0 7 2;
#X connect 13 0 16 0;
#X connect 13 0 17 0;
#X connect 13 0 9 1;
#X connect 13 0 8 1;
#X connect 19 0 20 0;
#X connect 20 0 18 0;
#X connect 20 0 11 0;
#X connect 21 0 24 0;
#X connect 23 0 22 0;
#X connect 24 0 19 0;
#X connect 25 0 24 0;
#X restore 1203 774 pd ap_bitcrush2;
#X text 1198 615 RESAMPLE;
#X msg 1268 603 32000;
#X msg 815 625 0;
#X obj 729 628 del 1000;
#X obj 761 664 metro 1000;
#X floatatom 1228 805 5 0 32 0 - - -, f 5;
#X msg 891 611 0 \, 88200 2000;
#X obj 1026 128 inlet bits;
#X obj 1108 128 inlet buffertrig;
#X connect 0 0 1 0;
#X connect 0 0 57 0;
#X connect 0 0 62 0;
#X connect 0 0 64 0;
#X connect 1 0 2 0;
#X connect 3 0 4 0;
#X connect 3 0 40 0;
#X connect 3 0 39 0;
#X connect 7 0 25 1;
#X connect 8 0 15 1;
#X connect 10 0 8 1;
#X connect 11 0 14 0;
#X connect 12 0 13 0;
#X connect 13 0 10 0;
#X connect 14 0 12 0;
#X connect 15 0 9 0;
#X connect 16 0 29 0;
#X connect 16 0 24 0;
#X connect 23 0 30 0;
#X connect 23 0 31 0;
#X connect 25 0 38 0;
#X connect 26 0 28 0;
#X connect 27 0 26 0;
#X connect 28 0 29 1;
#X connect 29 0 15 0;
#X connect 29 0 52 1;
#X connect 29 0 50 0;
#X connect 30 0 26 0;
#X connect 31 0 27 0;
#X connect 32 0 31 1;
#X connect 34 0 11 0;
#X connect 34 0 101 1;
#X connect 34 0 102 0;
#X connect 34 0 103 0;
#X connect 35 0 34 0;
#X connect 36 0 32 0;
#X connect 38 0 8 0;
#X connect 39 0 36 0;
#X connect 40 0 35 0;
#X connect 42 0 16 0;
#X connect 43 0 35 0;
#X connect 44 0 23 0;
#X connect 45 0 36 0;
#X connect 46 0 49 0;
#X connect 46 0 53 1;
#X connect 49 0 51 0;
#X connect 50 0 51 1;
#X connect 51 0 47 0;
#X connect 51 0 48 0;
#X connect 52 0 49 1;
#X connect 53 0 37 0;
#X connect 53 0 58 0;
#X connect 54 0 55 0;
#X connect 55 0 53 0;
#X connect 57 0 52 0;
#X connect 60 0 58 0;
#X connect 61 0 80 0;
#X connect 61 0 85 0;
#X connect 62 0 101 0;
#X connect 62 0 112 0;
#X connect 63 0 101 0;
#X connect 64 0 67 0;
#X connect 65 0 67 0;
#X connect 67 0 60 0;
#X connect 68 0 74 0;
#X connect 71 0 70 0;
#X connect 72 0 68 1;
#X connect 73 0 72 0;
#X connect 77 0 86 0;
#X connect 78 0 86 0;
#X connect 79 0 76 0;
#X connect 80 0 81 0;
#X connect 81 0 83 0;
#X connect 85 0 68 0;
#X connect 85 0 73 0;
#X connect 85 0 50 1;
#X connect 85 0 104 0;
#X connect 94 0 100 0;
#X connect 95 0 100 0;
#X connect 96 0 100 0;
#X connect 97 0 100 0;
#X connect 98 0 100 0;
#X connect 101 0 80 0;
#X connect 101 0 114 0;
#X connect 101 0 111 0;
#X connect 104 0 107 0;
#X connect 105 0 104 1;
#X connect 105 0 106 0;
#X connect 107 0 76 0;
#X connect 109 0 105 0;
#X connect 112 0 110 0;
#X connect 114 0 61 0;
#X connect 115 0 107 1;
#X connect 116 0 76 0;
