#N canvas 0 0 1252 613 10;
#X obj 927 228 loadbang;
#X obj 927 250 delay 300;
#X obj 927 272 s initbang;
#X obj 1117 238 r initbang;
#X msg 1117 260 \; pd dsp 1;
#X text 949 203 Initialization -- Turn DSP on;
#X text 149 167 Audio Bypass -- Input to Output;
#X msg 679 266 0;
#X obj 567 565 samphold~;
#X obj 583 709 vd~ \$0-bigbuffer;
#X obj 619 502 phasor~ 10;
#X floatatom 723 332 5 0 0 0 - - -, f 5;
#X obj 732 386 /;
#X floatatom 717 413 5 0 0 0 - - -, f 5;
#X msg 734 358 1000 \$1;
#X obj 558 660 *~;
#X obj 520 246 tgl 13 0 empty empty stutter-ON/OFF 31 4 0 10 -262144
-1 -1 1 1;
#X text 706 265 reset;
#X text 1243 584 one cycle per 60 seconds;
#X text 630 527 retrigger the playback position;
#X text 631 538 at a rate determined by "stutter-ms";
#X text 336 649 when the signal is zero \,;
#X text 340 663 the delay is also zero;
#X text 349 674 ie. normal playback;
#X text 1253 612 6 seconds = 6000ms;
#X obj 583 334 bng 15 250 50 1 \$0-stutter-bang-s \$0-stutter-bang-r
interrupt 35 4 0 10 -262144 -1 -1;
#X floatatom 452 499 5 0 9 0 - - -, f 5;
#X obj 566 443 phasor~ 0.166667;
#X floatatom 669 372 5 0 0 0 - - -, f 5;
#X msg 716 476 0;
#X floatatom 698 499 5 0 0 0 - - -, f 5;
#X obj 539 481 +~;
#X msg 652 347 1;
#X obj 748 445 del;
#X obj 805 473 *;
#X text 213 139 CURRENTLY ONLY LOOKS AT L INPUT;
#X obj 769 305 *;
#X msg 728 241 1000 \$1;
#X msg 824 433 1000 \$1;
#X obj 1152 501 delwrite~ \$0-bigbuffer 2000;
#X obj 565 488 *~ 2000;
#X msg 922 361 0.2;
#X msg 842 260 0.25;
#X obj 364 163 t b f;
#X obj 465 127 inlet stutter_toggle;
#X obj 609 126 inlet stutter_size;
#X obj 744 126 inlet interrupt_bang;
#X obj 887 127 inlet interrupt_size;
#X obj 355 88 inlet~ audioin;
#X obj 550 855 outlet~ audioout L;
#X obj 692 851 outlet~ audioout R;
#X obj 490 721 *~;
#X obj 586 775 *~;
#X obj 491 775 +~;
#X obj 519 691 -~;
#X obj 1194 475 *~;
#X obj 892 306 tgl 15 0 empty empty quarantine_buffer 32 5 0 10 -262144
-1 -1 0 1;
#X obj 1277 468 -~ 1;
#X text 519 206 w.i.p.;
#X obj 503 611 1;
#X obj 1109 553 tabwrite~ \$0-glitchbuffer1;
#N canvas 0 22 450 300 (subpatch) 0;
#X array \$0-glitchbuffer1 88200 float 4 black black;
#X coords 0 1 88199 -1 200 140 1;
#X restore 901 451 graph;
#X obj 1113 491 bng 15 250 50 0 empty empty empty 17 7 0 10 -262144
-1 -1;
#X obj 903 652 line~;
#X msg 891 611 0 \, 88200 2000;
#X obj 663 598 bng 15 250 50 0 empty empty empty 17 7 0 10 -262144
-1 -1;
#X obj 722 596 metro 200;
#X msg 746 566 stop;
#X obj 1171 375 bng 15 250 50 0 empty empty empty 17 7 0 10 -262144
-1 -1;
#X msg 1187 407 stop;
#X obj 682 281 bng 15 250 50 0 empty empty empty 17 7 0 10 -262144
-1 -1;
#X obj 1122 455 metro 3000;
#X obj 1051 784 -~;
#X text 1070 660 BITCRUSHER;
#X obj 1130 712 sig~;
#X floatatom 1098 683 5 0 0 0 - - -, f 5;
#X obj 1066 746 wrap~;
#X obj 1065 716 *~ 8;
#X obj 1050 813 /~ 8;
#X text 1208 673 BITCRUSH2;
#X obj 1217 702 +~ 1;
#X obj 1217 777 expr~ int($v1);
#X obj 1217 827 -~ 1;
#X obj 1156 859 tabwrite~ \$0-glitchbuffer1;
#X obj 1002 844 bng 15 250 50 0 empty empty empty 17 7 0 10 -262144
-1 -1;
#X msg 1044 839 stop;
#X obj 1156 821 bng 15 250 10 0 empty empty empty 17 7 0 10 -262144
-1 -1;
#X obj 936 697 snapshot~;
#X floatatom 1125 741 10 0 0 0 - - -, f 10;
#X obj 1095 811 print;
#X msg 1091 774 start \$1;
#X obj 927 740 print;
#X obj 1218 750 clip~ 0 255;
#X obj 1217 802 /~ 127.5;
#X obj 1217 728 *~ 127.5;
#X obj 761 664 metro 0.166667;
#X obj 1040 634 tabread4~ \$0-glitchbuffer1;
#X obj 1045 865 metro 1000;
#X obj 1290 673 samphold~;
#X obj 1288 634 phasor~ 32000;
#N canvas 300 33 636 556 dropsamples 0;
#X obj 14 36 inlet~ audioin;
#X obj 125 305 outlet~ out1;
#X obj 111 126 line~;
#X obj 214 130 2;
#X obj 155 200 ==~ 0;
#X obj 352 243 avg~;
#X obj 133 226 *~;
#X obj 356 172 0.0226757;
#X obj 367 72 1;
#X obj 294 23 44100;
#X obj 391 40 nbx 5 14 -1e+037 1e+037 0 0 empty empty empty 0 -8 0
10 -262144 -1 -1 0 256 0;
#X obj 401 98 /;
#X obj 182 100 metro;
#X obj 212 29 loadbang;
#X obj 46 165 nbx 5 14 -1e+037 1e+037 0 0 empty empty empty 0 -8 0
10 -262144 -1 -1 0 256 0;
#X floatatom 45 291 5 0 0 0 - - -, f 5;
#X obj 32 209 snapshot~;
#X obj 37 245 print;
#X obj 61 98 print;
#X obj 269 244 * 1000;
#X obj 166 356 bng 15 250 50 0 empty empty empty 17 7 0 10 -262144
-1 -1;
#X msg 166 379 stop;
#X msg 147 17 0;
#X obj 249 63 bng 15 250 50 0 empty empty empty 17 7 0 10 -262144 -1
-1;
#X obj 265 117 metro;
#X obj 460 229 1;
#X obj 70 343 metro 100;
#X msg 117 75 1000 0.1;
#X msg 357 206 0.0226757;
#X obj 151 160 expr~ $v1 % 20;
#X connect 0 0 6 0;
#X connect 2 0 16 0;
#X connect 2 0 29 0;
#X connect 4 0 6 1;
#X connect 6 0 1 0;
#X connect 8 0 11 0;
#X connect 10 0 11 1;
#X connect 12 0 22 0;
#X connect 13 0 12 0;
#X connect 13 0 26 0;
#X connect 16 0 17 0;
#X connect 19 0 12 1;
#X connect 20 0 26 0;
#X connect 21 0 26 0;
#X connect 22 0 2 0;
#X connect 23 0 12 0;
#X connect 23 0 24 0;
#X connect 24 0 27 0;
#X connect 26 0 16 0;
#X connect 27 0 2 0;
#X connect 28 0 19 0;
#X connect 28 0 2 1;
#X connect 28 0 24 0;
#X connect 29 0 4 0;
#X restore 718 807 pd dropsamples;
#X connect 0 0 1 0;
#X connect 0 0 59 0;
#X connect 0 0 65 0;
#X connect 0 0 68 0;
#X connect 1 0 2 0;
#X connect 3 0 4 0;
#X connect 3 0 42 0;
#X connect 3 0 41 0;
#X connect 7 0 27 1;
#X connect 8 0 15 1;
#X connect 10 0 8 1;
#X connect 11 0 14 0;
#X connect 12 0 13 0;
#X connect 13 0 10 0;
#X connect 14 0 12 0;
#X connect 15 0 9 0;
#X connect 16 0 31 0;
#X connect 16 0 26 0;
#X connect 25 0 32 0;
#X connect 25 0 33 0;
#X connect 27 0 40 0;
#X connect 28 0 30 0;
#X connect 29 0 28 0;
#X connect 30 0 31 1;
#X connect 31 0 15 0;
#X connect 31 0 54 1;
#X connect 31 0 52 0;
#X connect 32 0 28 0;
#X connect 33 0 29 0;
#X connect 34 0 33 1;
#X connect 36 0 11 0;
#X connect 37 0 36 0;
#X connect 38 0 34 0;
#X connect 40 0 8 0;
#X connect 41 0 38 0;
#X connect 42 0 37 0;
#X connect 44 0 16 0;
#X connect 45 0 37 0;
#X connect 46 0 25 0;
#X connect 47 0 38 0;
#X connect 48 0 51 0;
#X connect 48 0 55 1;
#X connect 51 0 53 0;
#X connect 52 0 53 1;
#X connect 53 0 100 0;
#X connect 53 0 49 0;
#X connect 53 0 50 0;
#X connect 54 0 51 1;
#X connect 55 0 39 0;
#X connect 55 0 60 0;
#X connect 56 0 57 0;
#X connect 57 0 55 0;
#X connect 59 0 54 0;
#X connect 62 0 60 0;
#X connect 63 0 87 0;
#X connect 63 0 96 0;
#X connect 64 0 63 0;
#X connect 65 0 66 0;
#X connect 65 0 95 0;
#X connect 66 0 87 0;
#X connect 66 0 64 0;
#X connect 67 0 66 0;
#X connect 68 0 71 0;
#X connect 69 0 71 0;
#X connect 71 0 62 0;
#X connect 72 0 78 0;
#X connect 75 0 74 0;
#X connect 76 0 72 1;
#X connect 77 0 76 0;
#X connect 80 0 94 0;
#X connect 81 0 93 0;
#X connect 82 0 83 0;
#X connect 84 0 97 0;
#X connect 85 0 97 0;
#X connect 86 0 83 0;
#X connect 87 0 88 0;
#X connect 88 0 90 0;
#X connect 92 0 81 0;
#X connect 93 0 82 0;
#X connect 94 0 92 0;
#X connect 96 0 72 0;
#X connect 96 0 77 0;
#X connect 96 0 98 0;
#X connect 96 0 52 1;
#X connect 98 0 80 0;
#X connect 99 0 98 1;
