#N canvas 44 76 1030 633 10;
#N canvas 0 50 450 300 sines 0;
#X obj 355 122 + 50;
#X obj 355 146 mtof;
#X obj 355 168 osc~;
#X obj 307 168 vline~;
#X obj 333 199 *~;
#X obj 335 230 outlet~;
#X obj 103 103 bng 15 250 50 0 empty empty empty 17 7 0 10 -262144
-1 -1;
#X obj 355 97 random 36;
#X msg 234 140 0.7 10 \, 0 150 20;
#X obj 156 62 inlet;
#X connect 0 0 1 0;
#X connect 1 0 2 0;
#X connect 2 0 4 1;
#X connect 3 0 4 0;
#X connect 4 0 5 0;
#X connect 6 0 8 0;
#X connect 6 0 7 0;
#X connect 7 0 0 0;
#X connect 8 0 3 0;
#X connect 9 0 6 0;
#X coords 0 -1 1 1 20 20 1 100 100;
#X restore 173 190 pd sines;
#N canvas 0 50 671 300 noise 0;
#X obj 502 130 mtof;
#X obj 307 168 vline~;
#X obj 333 199 *~;
#X obj 335 230 outlet~;
#X obj 103 103 bng 15 250 50 0 empty empty empty 17 7 0 10 -262144
-1 -1;
#X obj 502 81 random 36;
#X obj 447 130 noise~;
#X obj 502 106 + 70;
#X obj 152 52 inlet;
#X obj 448 180 vcf~ 1 10;
#X msg 515 159 3;
#X msg 234 141 1 1 \, 0 150 1;
#X connect 0 0 9 1;
#X connect 1 0 2 0;
#X connect 2 0 3 0;
#X connect 4 0 11 0;
#X connect 4 0 5 0;
#X connect 4 0 10 0;
#X connect 5 0 7 0;
#X connect 6 0 9 0;
#X connect 7 0 0 0;
#X connect 8 0 4 0;
#X connect 9 0 2 1;
#X connect 10 0 9 2;
#X connect 11 0 1 0;
#X coords 0 -1 1 1 20 20 1 100 100;
#X restore 233 190 pd noise;
#X obj 177 74 tgl 15 0 empty empty empty 17 7 0 10 -262144 -1 -1 0
1;
#X obj 177 119 random 100;
#X obj 183 141 moses 60;
#X obj 183 164 moses 90;
#X obj 177 96 metro 300;
#X text 29 66 Start the sequencer or do manual bangs or add your own
sounds to test the machinery, f 20;
#X msg 418 419 start;
#X msg 419 443 stop;
#X obj 635 254 bng 15 250 50 0 empty empty empty 0 -6 0 8 -262144 -1
-1;
#X obj 310 457 readsf~ 2;
#X obj 291 544 *~ 1;
#X obj 351 532 *~ 1;
#X obj 230 422 loadbang;
#X obj 80 448 dac~;
#X obj 263 31 bng 15 250 50 1 empty empty interrupt/glitch 17 7 0 10
-262144 -1 -1;
#X obj 201 5 tgl 15 0 empty empty enable_stuttttter 17 7 0 10 -262144
-1 -1 1 1;
#X obj 62 157 vu 15 240 empty empty -1 -8 0 10 -66577 -1 1 0;
#X obj 173 312 ap_table_glitchyhyhy;
#X obj 375 244 bng 15 250 50 0 empty empty empty 17 7 0 10 -262144
-1 -1;
#X obj 326 285 0.4;
#X msg 297 238 1.8;
#X obj 429 237 hsl 128 15 0 1 0 0 empty empty stiutterr_len -2 -8 0
10 -262144 -1 -1 10000 1;
#X floatatom 483 293 5 0 0 0 - - -, f 5;
#X text 524 293 sec;
#X obj 377 103 bng 15 250 10 0 empty empty bufferfed 17 7 0 10 -262144
-1 -1;
#X msg 333 366 open ../../mando1.wav;
#X msg 541 358 open ../../humoresque1.wav;
#X text 650 253 !#EOF shebang!;
#X msg 308 108 8;
#X floatatom 411 156 5 0 0 0 - - -, f 5;
#X obj 542 195 hsl 128 15 640 48000 1 0 empty empty sample_rate -2
-8 0 10 -262144 -1 -1 11507 1;
#X floatatom 578 222 10 0 0 0 - - -, f 10;
#X msg 536 119 32000;
#X connect 0 0 19 0;
#X connect 1 0 19 0;
#X connect 2 0 6 0;
#X connect 3 0 4 0;
#X connect 4 1 5 0;
#X connect 5 0 0 0;
#X connect 5 1 1 0;
#X connect 6 0 3 0;
#X connect 8 0 11 0;
#X connect 9 0 11 0;
#X connect 10 0 28 0;
#X connect 10 0 27 0;
#X connect 11 0 12 0;
#X connect 11 0 19 0;
#X connect 11 1 13 0;
#X connect 11 2 10 0;
#X connect 11 2 27 0;
#X connect 14 0 21 0;
#X connect 14 0 27 0;
#X connect 14 0 28 0;
#X connect 14 0 30 0;
#X connect 14 0 34 0;
#X connect 16 0 19 3;
#X connect 17 0 19 1;
#X connect 19 0 15 0;
#X connect 19 1 15 1;
#X connect 21 0 19 2;
#X connect 21 0 19 4;
#X connect 22 0 19 2;
#X connect 23 0 19 2;
#X connect 23 0 24 0;
#X connect 26 0 19 6;
#X connect 27 0 11 0;
#X connect 27 0 8 0;
#X connect 28 0 11 0;
#X connect 28 0 8 0;
#X connect 30 0 31 0;
#X connect 31 0 19 5;
#X connect 32 0 19 7;
#X connect 32 0 33 0;
#X connect 34 0 32 0;
