#N canvas -8 -8 1920 998 10;
#X obj 56 302 netreceive 3000;
#X obj 140 357 route start size density overlap blend window pitch
speed record file source reset freeze;
#X obj 554 354 route start_alt size_alt density_alt overlap_alt blend_alt
window_alt pitch_alt record_alt file_alt source_alt freeze_alt;
#X obj 141 639 s start;
#X obj 173 599 s size;
#X obj 202 554 s density;
#X obj 231 517 s overlap;
#X obj 261 485 s blend;
#X obj 292 451 s window;
#X obj 322 430 s pitch;
#X obj 353 403 s speed;
#X obj 388 540 s record;
#X obj 414 518 s file;
#X obj 447 499 s source;
#X obj 474 461 s reset;
#X obj 505 424 s freeze;
#X obj 549 538 s start_alt;
#X obj 567 513 s size_alt;
#X obj 582 490 s density_alt;
#X obj 600 465 s overlap_alt;
#X obj 683 544 s blend_alt;
#X obj 709 519 s window_alt;
#X obj 726 498 s pitch_alt;
#X obj 913 545 s freeze_alt;
#X obj 790 545 s record_alt;
#X obj 808 520 s file_alt;
#X obj 826 498 s source_alt;
#X obj 1104 438 loadbang;
#X obj 1104 460 delay 300;
#X obj 1104 482 s initbang;
#X obj 1294 448 r initbang;
#X msg 1294 470 \; pd dsp 1;
#X text 24 277 Receive Controls via TCP;
#X text 283 317 primary controls;
#X text 582 314 secondary controls (accessible when source is held)
;
#X text 1126 413 Initialization -- Turn DSP on;
#X obj 115 138 adc~;
#X obj 974 104 dac~;
#X text 149 167 Audio Bypass -- Input to Output;
#X msg 608 709 0;
#X obj 496 1008 samphold~;
#X obj 476 1171 vd~ \$0-bigbuffer;
#X obj 548 945 phasor~ 10;
#X obj 667 781 hsl 128 20 0.25 1000 0 1 \$0-interrupt-ms-s \$0-interrupt-ms-r
interrupt-ms -2 -10 0 10 -219584 -1 -170602 3500 1;
#X floatatom 621 778 5 0 0 0 - - -;
#X obj 631 825 /;
#X floatatom 631 845 5 0 0 0 - - -;
#X msg 630 804 1000 \$1;
#X obj 481 1102 *~;
#X obj 449 689 tgl 13 0 empty empty stutter-ON/OFF 31 4 0 10 -262144
-1 -1 0 1;
#X text 635 708 reset;
#X text 296 778 one cycle per 60 seconds;
#X text 559 970 retrigger the playback position;
#X text 560 981 at a rate determined by "stutter-ms";
#X text 319 1091 when the signal is zero \,;
#X text 323 1105 the delay is also zero;
#X text 332 1116 ie. normal playback;
#X obj 94 1034 delwrite~ \$0-bigbuffer 6000;
#X obj 494 931 *~ 6000;
#X text 309 826 6 seconds = 6000ms;
#X obj 813 699 param.change;
#X msg 812 767 set \$1;
#X obj 727 710 nbx 5 14 -1e+037 1e+037 0 0 \$0-stutter-num-s \$0-stutter-num-r
empty 0 -8 0 10 -262144 -1 -1 244.283 256;
#X obj 512 777 bng 15 250 50 1 \$0-stutter-bang-s \$0-stutter-bang-r
interrupt 35 4 0 10 -262144 -1 -1;
#X floatatom 381 942 5 0 9 0 - - -;
#X obj 495 886 phasor~ 0.166667;
#X floatatom 574 919 5 0 0 0 - - -;
#X floatatom 598 815 5 0 0 0 - - -;
#X msg 645 919 0;
#X floatatom 627 942 5 0 0 0 - - -;
#X obj 468 924 +~;
#X msg 581 790 1;
#X obj 661 739 hsl 128 20 0.25 1000 0 1 \$0-stutter-ms-s \$0-stutter-ms-r
stutter-ms -2 -10 0 10 -219584 -1 -170602 3150 1;
#X msg 813 1003 set \$1;
#X obj 813 982 r \$0-interrupt-ms-s;
#X obj 813 1024 s \$0-interrupt-num-s;
#X obj 813 1052 r \$0-interrupt-num-s;
#X obj 813 1073 s \$0-interrupt-ms-r;
#X obj 723 826 nbx 5 14 -1e+037 1e+037 0 0 \$0-interrupt-num-s \$0-interrupt-num-r
empty 0 -8 0 10 -262144 -1 -1 275.772 256;
#X obj 812 746 r \$0-stutter-ms-s;
#X obj 812 816 r \$0-stutter-num-s;
#X obj 812 837 s \$0-stutter-ms-r;
#X obj 813 938 s \$0-stutter-num-r;
#X obj 677 888 del;
#X obj 898 605 r \$0-stutter-ms-s;
#X obj 648 674 *;
#X obj 813 721 param.set 1000 \$0-stutter-ms-s;
#X obj 811 1099 param.set 1000 \$0-interrupt-ms-s;
#X obj 742 904 *;
#X obj 802 867 1000;
#X text 213 139 CURRENTLY ONLY LOOKS AT L INPUT;
#X obj 532 706 r file;
#X obj 446 647 r source;
#X obj 812 788 s \$0-stutter-num-r;
#X obj 749 865 r start;
#X obj 655 635 r size;
#X obj 585 644 1000;
#X connect 0 0 1 0;
#X connect 1 0 3 0;
#X connect 1 1 4 0;
#X connect 1 2 5 0;
#X connect 1 3 6 0;
#X connect 1 4 7 0;
#X connect 1 5 8 0;
#X connect 1 6 9 0;
#X connect 1 7 10 0;
#X connect 1 8 11 0;
#X connect 1 9 12 0;
#X connect 1 10 13 0;
#X connect 1 11 14 0;
#X connect 1 12 15 0;
#X connect 1 13 2 0;
#X connect 2 0 16 0;
#X connect 2 1 17 0;
#X connect 2 2 18 0;
#X connect 2 3 19 0;
#X connect 2 4 20 0;
#X connect 2 5 21 0;
#X connect 2 6 22 0;
#X connect 2 7 24 0;
#X connect 2 8 25 0;
#X connect 2 9 26 0;
#X connect 2 10 23 0;
#X connect 27 0 28 0;
#X connect 28 0 29 0;
#X connect 30 0 31 0;
#X connect 36 0 57 0;
#X connect 39 0 65 1;
#X connect 40 0 48 1;
#X connect 41 0 37 0;
#X connect 41 0 37 1;
#X connect 42 0 40 1;
#X connect 43 0 78 0;
#X connect 44 0 47 0;
#X connect 45 0 46 0;
#X connect 46 0 42 0;
#X connect 47 0 45 0;
#X connect 48 0 41 0;
#X connect 49 0 70 0;
#X connect 49 0 64 0;
#X connect 58 0 40 0;
#X connect 61 0 93 0;
#X connect 63 0 71 0;
#X connect 63 0 83 0;
#X connect 65 0 58 0;
#X connect 67 0 69 0;
#X connect 68 0 67 0;
#X connect 69 0 70 1;
#X connect 70 0 48 0;
#X connect 71 0 67 0;
#X connect 73 0 75 0;
#X connect 74 0 73 0;
#X connect 76 0 77 0;
#X connect 79 0 61 0;
#X connect 80 0 81 0;
#X connect 83 0 68 0;
#X connect 85 0 44 0;
#X connect 88 0 83 1;
#X connect 89 0 88 0;
#X connect 91 0 63 0;
#X connect 92 0 49 0;
#X connect 94 0 88 0;
#X connect 95 0 85 1;
#X connect 96 0 85 0;
