#N canvas 311 50 1601 822 10;
#X msg 589 26 0;
#X obj 477 325 samphold~;
#X msg 229 34 \; pd dsp 1;
#X obj 228 11 loadbang;
#X obj 461 471 vd~ \$0-bigbuffer;
#X obj 529 262 phasor~ 10;
#X obj 648 98 hsl 128 20 0.25 1000 0 1 \$0-interrupt-ms-s \$0-interrupt-ms-r
interrupt-ms -2 -10 0 10 -219584 -1 -170602 0 1;
#X floatatom 602 95 5 0 0 0 - - -;
#X obj 612 142 /;
#X floatatom 612 162 5 0 0 0 - - -;
#X msg 611 121 1000 \$1;
#X obj 462 419 *~;
#X obj 455 67 tgl 13 0 empty empty stutter-ON/OFF 31 4 0 10 -262144
-1 -1 0 1;
#X text 616 25 reset;
#X text 277 95 one cycle per 60 seconds;
#X text 540 287 retrigger the playback position;
#X text 541 298 at a rate determined by "stutter-ms";
#X text 300 408 when the signal is zero \,;
#X text 304 422 the delay is also zero;
#X text 313 433 ie. normal playback;
#X obj 453 532 dac~ 1 2;
#X obj 348 15 adc~ 1 2;
#X obj 143 60 notein;
#X obj 61 53 midiin;
#X obj 75 351 delwrite~ \$0-bigbuffer 6000;
#X obj 475 248 *~ 6000;
#X text 290 143 6 seconds = 6000ms;
#X obj 794 16 param.change;
#X msg 793 84 set \$1;
#X obj 793 196 sel 1 2, f 11;
#X msg 793 217 200;
#X msg 824 217 2000;
#X msg 856 217 10000;
#X obj 793 173 program.get 1;
#X obj 708 27 nbx 5 14 -1e+037 1e+037 0 0 \$0-stutter-num-s \$0-stutter-num-r
empty 0 -8 0 10 -262144 -1 -1 0 256;
#X obj 505 97 bng 15 250 50 1 \$0-stutter-bang-s \$0-stutter-bang-r
interrupt 35 4 0 10 -262144 -1 -1;
#X obj 194 242 r \$0-stutter-bang-s;
#X obj 270 295 r \$0-logicthing;
#X floatatom 362 259 5 0 9 0 - - -;
#X msg 397 265 1;
#X obj 476 203 phasor~ 0.166667;
#X floatatom 18 18 5 0 0 0 - - -;
#X floatatom 555 236 5 0 0 0 - - -;
#X obj 543 164 spigot 0;
#X msg 508 177 0;
#X floatatom 233 58 5 0 0 0 - - -;
#X floatatom 583 126 5 0 0 0 - - -;
#X msg 623 226 0;
#X floatatom 608 259 5 0 0 0 - - -;
#X obj 601 365 vu 15 120 empty empty -1 -8 0 10 -66577 -1 1 0;
#X obj 533 364 pvu~;
#X obj 449 241 +~;
#X obj 684 381 print;
#X msg 562 107 1;
#X floatatom 475 133 5 0 0 0 - - -;
#X floatatom 475 157 5 0 0 0 - - -;
#X text 442 133 note;
#X text 451 157 vel;
#X obj 142 120 stripnote;
#X obj 598 509 decimate~;
#X obj 668 535 delwrite~ \$0-bigbuffer 6000;
#X floatatom 672 475 5 0 0 0 - - -;
#X floatatom 623 484 5 0 0 0 - - -;
#X obj 564 551 snapshot~;
#X obj 633 62 hsl 128 20 0.25 1000 0 1 \$0-stutter-ms-s \$0-stutter-ms-r
stutter-ms -2 -10 0 10 -219584 -1 -170602 10700 1;
#X msg 794 320 set \$1;
#X obj 794 299 r \$0-interrupt-ms-s;
#X obj 794 341 s \$0-interrupt-num-s;
#X obj 794 369 r \$0-interrupt-num-s;
#X obj 794 390 s \$0-interrupt-ms-r;
#X obj 704 143 nbx 5 14 -1e+037 1e+037 0 0 \$0-interrupt-num-s \$0-interrupt-num-r
empty 0 -8 0 10 -262144 -1 -1 0.25 256;
#X obj 793 63 r \$0-stutter-ms-s;
#X obj 793 105 s \$0-stutter-num-s;
#X obj 793 133 r \$0-stutter-num-s;
#X obj 793 154 s \$0-stutter-ms-r;
#X obj 794 255 s \$0-stutter-num-r;
#X obj 794 38 param.set 200 \$0-stutter-ms-s;
#X obj 468 39 tgl 15 0 empty empty interrupt note 33 4 0 10 -262144
-1 -1 0 1;
#X obj 658 205 del;
#X obj 792 416 param.set 200 \$0-interrupt-ms-s;
#X obj 398 212 spigot 0;
#X connect 0 0 40 1;
#X connect 1 0 11 1;
#X connect 3 0 2 0;
#X connect 4 0 20 0;
#X connect 4 0 20 1;
#X connect 5 0 1 1;
#X connect 6 0 70 0;
#X connect 6 0 78 1;
#X connect 7 0 10 0;
#X connect 8 0 9 0;
#X connect 9 0 5 0;
#X connect 10 0 8 0;
#X connect 11 0 4 0;
#X connect 12 0 38 0;
#X connect 12 0 51 0;
#X connect 21 0 24 0;
#X connect 22 0 54 0;
#X connect 22 0 58 0;
#X connect 22 1 55 0;
#X connect 22 1 80 0;
#X connect 25 0 1 0;
#X connect 28 0 72 0;
#X connect 29 0 30 0;
#X connect 29 1 31 0;
#X connect 29 2 32 0;
#X connect 30 0 75 0;
#X connect 31 0 75 0;
#X connect 32 0 75 0;
#X connect 33 0 29 0;
#X connect 35 0 44 0;
#X connect 35 0 53 0;
#X connect 35 0 78 0;
#X connect 40 0 25 0;
#X connect 44 0 43 1;
#X connect 46 0 43 1;
#X connect 46 0 48 0;
#X connect 47 0 46 0;
#X connect 48 0 51 1;
#X connect 50 0 49 0;
#X connect 51 0 50 0;
#X connect 51 0 11 0;
#X connect 53 0 46 0;
#X connect 61 0 59 2;
#X connect 62 0 59 1;
#X connect 64 0 7 0;
#X connect 65 0 67 0;
#X connect 66 0 65 0;
#X connect 68 0 69 0;
#X connect 71 0 28 0;
#X connect 73 0 74 0;
#X connect 77 0 80 1;
#X connect 78 0 47 0;
#X connect 80 0 35 0;
#X coords 0 -1 1 1 349 173 1 441 20;
